<svg xmlns="http://www.w3.org/2000/svg" viewBox="0 0 32 32" width="32" height="32">
  <!-- Background circle -->
  <circle cx="16" cy="16" r="15" fill="#2563eb" stroke="#1d4ed8" stroke-width="2"/>
  
  <!-- Split symbol - two parts of a dollar sign -->
  <g fill="white" stroke="white" stroke-width="0.5">
    <!-- Left part of split dollar -->
    <path d="M8 10 C8 8, 10 6, 12 6 L14 6 L14 8 L12 8 C11 8, 10 9, 10 10 L10 12 C10 13, 11 14, 12 14 L14 14 L14 16 L12 16 C10 16, 8 14, 8 12 Z"/>
    <line x1="13" y1="4" x2="13" y2="18" stroke-width="1"/>
    
    <!-- Right part of split dollar -->
    <path d="M18 16 L20 16 C21 16, 22 17, 22 18 L22 20 C22 21, 21 22, 20 22 L18 22 L18 24 L20 24 C22 24, 24 22, 24 20 L24 18 C24 16, 22 14, 20 14 L18 14 Z"/>
    <line x1="19" y1="12" x2="19" y2="26" stroke-width="1"/>
    
    <!-- Split line in the middle -->
    <line x1="14" y1="12" x2="18" y2="12" stroke="#ef4444" stroke-width="2" stroke-dasharray="2,2"/>
  </g>
</svg> 